 0
SECTION
  2
HEADER
  9
$ACADVER
  1
AC1012
  9
$HANDSEED
  5
FFFF
  9
$DWGCODEPAGE
  3
ANSI_1251
  9
$INSBASE
  10
0.00
  20
0.00
  30
0.00
  9
$EXTMIN
  10
9998.00
  20
9998.00
  30
0.00
  9
$EXTMAX
  10
-9998.00
  20
-9998.00
  30
0.00
  9
$LIMMIN
  10
0.00
  20
0.00
  9
$LIMMAX
  10
420.00
  20
297.00
  9
$TEXTSIZE
  40
5
  9
$TEXTSTYLE
  7
Standard
  9
$UNITMODE
  70
0
  9
$MEASUREMENT
  70
1
  9
$INSUNITS
  70
4
  9
$DIMASSOC
  280
0
  0
ENDSEC
  0
SECTION
  2
TABLES
  0
TABLE
  2
VPORT
  5
1
  100
AcDbSymbolTable
  70
1
  0
VPORT
  5
2
  100
AcDbSymbolTableRecord
  100
AcDbViewportTableRecord
  2
*Active
  70
0
  10
9998
  20
9998
  11
-9998
  21
-9998
  12
0
  22
0
  12
286
  22
148
  13
0
  23
0
  14
1
  24
1
  15
1
  25
1
  16
0
  26
0
  36
1
  17
0
  27
0
  37
0
  40
297
  41
2
  42
50
  43
0
  44
0
  45
0
  50
0
  51
0
  71
0
  72
100
  73
1
  74
3
  75
0
  76
0
  77
0
  78
0
  281
0
  65
1
  110
0
  120
0
  130
0
  111
1
  121
0
  131
0
  112
0
  122
1
  132
0
  79
0
  146
0
  0
ENDTAB
  0
TABLE
  2
LTYPE
  5
3
  100
AcDbSymbolTable
  70
2
  0
LTYPE
  5
4
  100
AcDbSymbolTableRecord
  100
AcDbLinetypeTableRecord
  2
ByBlock
  70
0
  3

  72
65
  73
0
  40
0.0
  0
LTYPE
  5
5
  100
AcDbSymbolTableRecord
  100
AcDbLinetypeTableRecord
  2
Continuous
  70
0
  3
Solid line
  72
65
  73
0
  40
0.0
  0
ENDTAB
  0
TABLE
  2
LAYER
  5
6
  100
AcDbSymbolTable
  70
37
  0
LAYER
  5
7
  100
AcDbSymbolTableRecord
  100
AcDbLayerTableRecord
  2
LEG
  70
0
  62
1
  6
Continuous
  370
-3
  390
F
  347
46
  348
0
  0
LAYER
  5
8
  100
AcDbSymbolTableRecord
  100
AcDbLayerTableRecord
  2
SPLAY
  70
0
  62
2
  6
Continuous
  370
-3
  390
F
  347
46
  348
0
  0
LAYER
  5
9
  100
AcDbSymbolTableRecord
  100
AcDbLayerTableRecord
  2
STATION
  70
0
  62
3
  6
Continuous
  370
-3
  390
F
  347
46
  348
0
  0
LAYER
  5
A
  100
AcDbSymbolTableRecord
  100
AcDbLayerTableRecord
  2
LINE
  70
0
  62
4
  6
Continuous
  370
-3
  390
F
  347
46
  348
0
  0
LAYER
  5
B
  100
AcDbSymbolTableRecord
  100
AcDbLayerTableRecord
  2
POINT
  70
0
  62
5
  6
Continuous
  370
-3
  390
F
  347
46
  348
0
  0
LAYER
  5
C
  100
AcDbSymbolTableRecord
  100
AcDbLayerTableRecord
  2
AREA
  70
0
  62
6
  6
Continuous
  370
-3
  390
F
  347
46
  348
0
  0
LAYER
  5
D
  100
AcDbSymbolTableRecord
  100
AcDbLayerTableRecord
  2
REF
  70
0
  62
7
  6
Continuous
  370
-3
  390
F
  347
46
  348
0
  0
LAYER
  5
E
  100
AcDbSymbolTableRecord
  100
AcDbLayerTableRecord
  2
L_u-user
  70
0
  62
8
  6
Continuous
  370
-3
  390
F
  347
46
  348
0
  0
LAYER
  5
F
  100
AcDbSymbolTableRecord
  100
AcDbLayerTableRecord
  2
L_wall
  70
0
  62
9
  6
Continuous
  370
-3
  390
F
  347
46
  348
0
  0
LAYER
  5
10
  100
AcDbSymbolTableRecord
  100
AcDbLayerTableRecord
  2
L_arrow
  70
0
  62
10
  6
Continuous
  370
-3
  390
F
  347
46
  348
0
  0
LAYER
  5
11
  100
AcDbSymbolTableRecord
  100
AcDbLayerTableRecord
  2
L_border
  70
0
  62
11
  6
Continuous
  370
-3
  390
F
  347
46
  348
0
  0
LAYER
  5
12
  100
AcDbSymbolTableRecord
  100
AcDbLayerTableRecord
  2
L_ceiling-meander
  70
0
  62
12
  6
Continuous
  370
-3
  390
F
  347
46
  348
0
  0
LAYER
  5
13
  100
AcDbSymbolTableRecord
  100
AcDbLayerTableRecord
  2
L_chimney
  70
0
  62
13
  6
Continuous
  370
-3
  390
F
  347
46
  348
0
  0
LAYER
  5
14
  100
AcDbSymbolTableRecord
  100
AcDbLayerTableRecord
  2
L_contour
  70
0
  62
14
  6
Continuous
  370
-3
  390
F
  347
46
  348
0
  0
LAYER
  5
15
  100
AcDbSymbolTableRecord
  100
AcDbLayerTableRecord
  2
L_fault
  70
0
  62
15
  6
Continuous
  370
-3
  390
F
  347
46
  348
0
  0
LAYER
  5
16
  100
AcDbSymbolTableRecord
  100
AcDbLayerTableRecord
  2
L_floor-meander
  70
0
  62
16
  6
Continuous
  370
-3
  390
F
  347
46
  348
0
  0
LAYER
  5
17
  100
AcDbSymbolTableRecord
  100
AcDbLayerTableRecord
  2
L_overhang
  70
0
  62
17
  6
Continuous
  370
-3
  390
F
  347
46
  348
0
  0
LAYER
  5
18
  100
AcDbSymbolTableRecord
  100
AcDbLayerTableRecord
  2
L_pit
  70
0
  62
18
  6
Continuous
  370
-3
  390
F
  347
46
  348
0
  0
LAYER
  5
19
  100
AcDbSymbolTableRecord
  100
AcDbLayerTableRecord
  2
L_wall-presumed
  70
0
  62
19
  6
Continuous
  370
-3
  390
F
  347
46
  348
0
  0
LAYER
  5
1A
  100
AcDbSymbolTableRecord
  100
AcDbLayerTableRecord
  2
L_rock-border
  70
0
  62
20
  6
Continuous
  370
-3
  390
F
  347
46
  348
0
  0
LAYER
  5
1B
  100
AcDbSymbolTableRecord
  100
AcDbLayerTableRecord
  2
L_section
  70
0
  62
21
  6
Continuous
  370
-3
  390
F
  347
46
  348
0
  0
LAYER
  5
1C
  100
AcDbSymbolTableRecord
  100
AcDbLayerTableRecord
  2
L_slope
  70
0
  62
22
  6
Continuous
  370
-3
  390
F
  347
46
  348
0
  0
LAYER
  5
1D
  100
AcDbSymbolTableRecord
  100
AcDbLayerTableRecord
  2
L_wall-blocks
  70
0
  62
23
  6
Continuous
  370
-3
  390
F
  347
46
  348
0
  0
LAYER
  5
1E
  100
AcDbSymbolTableRecord
  100
AcDbLayerTableRecord
  2
L_wall-clay
  70
0
  62
24
  6
Continuous
  370
-3
  390
F
  347
46
  348
0
  0
LAYER
  5
1F
  100
AcDbSymbolTableRecord
  100
AcDbLayerTableRecord
  2
L_wall-debris
  70
0
  62
25
  6
Continuous
  370
-3
  390
F
  347
46
  348
0
  0
LAYER
  5
20
  100
AcDbSymbolTableRecord
  100
AcDbLayerTableRecord
  2
L_wall-ice
  70
0
  62
26
  6
Continuous
  370
-3
  390
F
  347
46
  348
0
  0
LAYER
  5
21
  100
AcDbSymbolTableRecord
  100
AcDbLayerTableRecord
  2
L_wall-sand
  70
0
  62
27
  6
Continuous
  370
-3
  390
F
  347
46
  348
0
  0
LAYER
  5
22
  100
AcDbSymbolTableRecord
  100
AcDbLayerTableRecord
  2
L_water-flow
  70
0
  62
28
  6
Continuous
  370
-3
  390
F
  347
46
  348
0
  0
LAYER
  5
23
  100
AcDbSymbolTableRecord
  100
AcDbLayerTableRecord
  2
A_u-user
  70
0
  62
29
  6
Continuous
  370
-3
  390
F
  347
46
  348
0
  0
LAYER
  5
24
  100
AcDbSymbolTableRecord
  100
AcDbLayerTableRecord
  2
A_water
  70
0
  62
30
  6
Continuous
  370
-3
  390
F
  347
46
  348
0
  0
LAYER
  5
25
  100
AcDbSymbolTableRecord
  100
AcDbLayerTableRecord
  2
A_blocks
  70
0
  62
31
  6
Continuous
  370
-3
  390
F
  347
46
  348
0
  0
LAYER
  5
26
  100
AcDbSymbolTableRecord
  100
AcDbLayerTableRecord
  2
A_clay
  70
0
  62
32
  6
Continuous
  370
-3
  390
F
  347
46
  348
0
  0
LAYER
  5
27
  100
AcDbSymbolTableRecord
  100
AcDbLayerTableRecord
  2
A_debris
  70
0
  62
33
  6
Continuous
  370
-3
  390
F
  347
46
  348
0
  0
LAYER
  5
28
  100
AcDbSymbolTableRecord
  100
AcDbLayerTableRecord
  2
A_ice
  70
0
  62
34
  6
Continuous
  370
-3
  390
F
  347
46
  348
0
  0
LAYER
  5
29
  100
AcDbSymbolTableRecord
  100
AcDbLayerTableRecord
  2
A_pebbles
  70
0
  62
35
  6
Continuous
  370
-3
  390
F
  347
46
  348
0
  0
LAYER
  5
2A
  100
AcDbSymbolTableRecord
  100
AcDbLayerTableRecord
  2
A_sand
  70
0
  62
36
  6
Continuous
  370
-3
  390
F
  347
46
  348
0
  0
LAYER
  5
2B
  100
AcDbSymbolTableRecord
  100
AcDbLayerTableRecord
  2
A_snow
  70
0
  62
37
  6
Continuous
  370
-3
  390
F
  347
46
  348
0
  0
ENDTAB
  0
TABLE
  2
STYLE
  5
2C
  100
AcDbSymbolTable
  70
2
  0
STYLE
  5
2D
  100
AcDbSymbolTableRecord
  100
AcDbTextStyleTableRecord
  2
Standard
  70
0
  40
0.0
  41
1.0
  50
0.0
  71
0
  42
2.5
  3
txt
  4

  0
STYLE
  5
2E
  100
AcDbSymbolTableRecord
  100
AcDbTextStyleTableRecord
  2
MyStyle
  70
0
  40
0.0
  41
1.0
  50
0.0
  71
0
  42
2.5
  3
Sans Serif.ttf
  4

  1001
ACAD
  1000
DejaVu Sans
  1071
0
  0
ENDTAB
  0
TABLE
  2
VIEW
  5
2F
  100
AcDbSymbolTable
  70
0
  0
ENDTAB
  0
TABLE
  2
UCS
  5
30
  100
AcDbSymbolTable
  70
0
  0
ENDTAB
  0
TABLE
  2
APPID
  5
31
  100
AcDbSymbolTable
  70
1
  0
APPID
  5
32
  100
AcDbSymbolTableRecord
  100
AcDbRegAppTableRecord
  2
ACAD
  70
0
  0
ENDTAB
  0
TABLE
  2
DIMSTYLE
  5
33
  100
AcDbSymbolTable
  70
1
  100
AcDbDimStyleTable
  71
0
  0
DIMSTYLE
  105
34
  100
AcDbSymbolTableRecord
  100
AcDbDimStyleTableRecord
  2
Standard
  3

  4

  5

  6

  7

  40
1.0
  41
2.5
  42
0.625
  43
3.75
  44
1.25
  45
0.0
  46
0.0
  47
0.0
  48
0.0
  70
0
  71
0
  72
0
  73
0
  74
0
  75
0
  76
0
  77
1
  78
8
  140
2.5
  141
2.5
  142
0.0
  143
0.04
  144
1.0
  145
0.0
  146
1.0
  147
0.625
  170
0
  171
3
  172
1
  173
0
  174
0
  175
0
  176
0
  177
0
  178
0
  271
2
  272
2
  274
3
  278
44
  283
0
  284
8
  340
17
  0
ENDTAB
  0
TABLE
  2
BLOCK_RECORD
  5
35
  100
AcDbSymbolTable
  70
46
  0
BLOCK_RECORD
  5
36
  100
AcDbSymbolTableRecord
  100
AcDbBlockTableRecord
  2
P_u-user
  70
0
  0
BLOCK_RECORD
  5
37
  100
AcDbSymbolTableRecord
  100
AcDbBlockTableRecord
  2
P_label
  70
0
  0
BLOCK_RECORD
  5
38
  100
AcDbSymbolTableRecord
  100
AcDbBlockTableRecord
  2
P_air-draught
  70
0
  0
BLOCK_RECORD
  5
39
  100
AcDbSymbolTableRecord
  100
AcDbBlockTableRecord
  2
P_anchor
  70
0
  0
BLOCK_RECORD
  5
3A
  100
AcDbSymbolTableRecord
  100
AcDbBlockTableRecord
  2
P_aragonite
  70
0
  0
BLOCK_RECORD
  5
3B
  100
AcDbSymbolTableRecord
  100
AcDbBlockTableRecord
  2
P_archeo-material
  70
0
  0
BLOCK_RECORD
  5
3C
  100
AcDbSymbolTableRecord
  100
AcDbBlockTableRecord
  2
P_blocks
  70
0
  0
BLOCK_RECORD
  5
3D
  100
AcDbSymbolTableRecord
  100
AcDbBlockTableRecord
  2
P_breakdown-choke
  70
0
  0
BLOCK_RECORD
  5
3E
  100
AcDbSymbolTableRecord
  100
AcDbBlockTableRecord
  2
P_clay
  70
0
  0
BLOCK_RECORD
  5
3F
  100
AcDbSymbolTableRecord
  100
AcDbBlockTableRecord
  2
P_continuation
  70
0
  0
BLOCK_RECORD
  5
40
  100
AcDbSymbolTableRecord
  100
AcDbBlockTableRecord
  2
P_crystal
  70
0
  0
BLOCK_RECORD
  5
41
  100
AcDbSymbolTableRecord
  100
AcDbBlockTableRecord
  2
P_curtain
  70
0
  0
BLOCK_RECORD
  5
42
  100
AcDbSymbolTableRecord
  100
AcDbBlockTableRecord
  2
P_u-danger
  70
0
  0
BLOCK_RECORD
  5
43
  100
AcDbSymbolTableRecord
  100
AcDbBlockTableRecord
  2
P_debris
  70
0
  0
BLOCK_RECORD
  5
44
  100
AcDbSymbolTableRecord
  100
AcDbBlockTableRecord
  2
P_dig
  70
0
  0
BLOCK_RECORD
  5
45
  100
AcDbSymbolTableRecord
  100
AcDbBlockTableRecord
  2
P_disc
  70
0
  0
BLOCK_RECORD
  5
46
  100
AcDbSymbolTableRecord
  100
AcDbBlockTableRecord
  2
P_entrance
  70
0
  0
BLOCK_RECORD
  5
47
  100
AcDbSymbolTableRecord
  100
AcDbBlockTableRecord
  2
P_flowstone
  70
0
  0
BLOCK_RECORD
  5
48
  100
AcDbSymbolTableRecord
  100
AcDbBlockTableRecord
  2
P_flute
  70
0
  0
BLOCK_RECORD
  5
49
  100
AcDbSymbolTableRecord
  100
AcDbBlockTableRecord
  2
P_gradient
  70
0
  0
BLOCK_RECORD
  5
4A
  100
AcDbSymbolTableRecord
  100
AcDbBlockTableRecord
  2
P_guano
  70
0
  0
BLOCK_RECORD
  5
4B
  100
AcDbSymbolTableRecord
  100
AcDbBlockTableRecord
  2
P_gypsum
  70
0
  0
BLOCK_RECORD
  5
4C
  100
AcDbSymbolTableRecord
  100
AcDbBlockTableRecord
  2
P_helictite
  70
0
  0
BLOCK_RECORD
  5
4D
  100
AcDbSymbolTableRecord
  100
AcDbBlockTableRecord
  2
P_ice
  70
0
  0
BLOCK_RECORD
  5
4E
  100
AcDbSymbolTableRecord
  100
AcDbBlockTableRecord
  2
P_low-end
  70
0
  0
BLOCK_RECORD
  5
4F
  100
AcDbSymbolTableRecord
  100
AcDbBlockTableRecord
  2
P_moonmilk
  70
0
  0
BLOCK_RECORD
  5
50
  100
AcDbSymbolTableRecord
  100
AcDbBlockTableRecord
  2
P_narrow-end
  70
0
  0
BLOCK_RECORD
  5
51
  100
AcDbSymbolTableRecord
  100
AcDbBlockTableRecord
  2
P_paleo-material
  70
0
  0
BLOCK_RECORD
  5
52
  100
AcDbSymbolTableRecord
  100
AcDbBlockTableRecord
  2
P_paleoflow
  70
0
  0
BLOCK_RECORD
  5
53
  100
AcDbSymbolTableRecord
  100
AcDbBlockTableRecord
  2
P_pebbles
  70
0
  0
BLOCK_RECORD
  5
54
  100
AcDbSymbolTableRecord
  100
AcDbBlockTableRecord
  2
P_pendant
  70
0
  0
BLOCK_RECORD
  5
55
  100
AcDbSymbolTableRecord
  100
AcDbBlockTableRecord
  2
P_pillar
  70
0
  0
BLOCK_RECORD
  5
56
  100
AcDbSymbolTableRecord
  100
AcDbBlockTableRecord
  2
P_popcorn
  70
0
  0
BLOCK_RECORD
  5
57
  100
AcDbSymbolTableRecord
  100
AcDbBlockTableRecord
  2
P_root
  70
0
  0
BLOCK_RECORD
  5
58
  100
AcDbSymbolTableRecord
  100
AcDbBlockTableRecord
  2
P_sand
  70
0
  0
BLOCK_RECORD
  5
59
  100
AcDbSymbolTableRecord
  100
AcDbBlockTableRecord
  2
P_scallop
  70
0
  0
BLOCK_RECORD
  5
5A
  100
AcDbSymbolTableRecord
  100
AcDbBlockTableRecord
  2
P_section
  70
0
  0
BLOCK_RECORD
  5
5B
  100
AcDbSymbolTableRecord
  100
AcDbBlockTableRecord
  2
P_sink
  70
0
  0
BLOCK_RECORD
  5
5C
  100
AcDbSymbolTableRecord
  100
AcDbBlockTableRecord
  2
P_snow
  70
0
  0
BLOCK_RECORD
  5
5D
  100
AcDbSymbolTableRecord
  100
AcDbBlockTableRecord
  2
P_soda-straw
  70
0
  0
BLOCK_RECORD
  5
5E
  100
AcDbSymbolTableRecord
  100
AcDbBlockTableRecord
  2
P_spring
  70
0
  0
BLOCK_RECORD
  5
5F
  100
AcDbSymbolTableRecord
  100
AcDbBlockTableRecord
  2
P_stalactite
  70
0
  0
BLOCK_RECORD
  5
60
  100
AcDbSymbolTableRecord
  100
AcDbBlockTableRecord
  2
P_stalagmite
  70
0
  0
BLOCK_RECORD
  5
61
  100
AcDbSymbolTableRecord
  100
AcDbBlockTableRecord
  2
P_wall-calcite
  70
0
  0
BLOCK_RECORD
  5
62
  100
AcDbSymbolTableRecord
  100
AcDbBlockTableRecord
  2
P_water
  70
0
  0
BLOCK_RECORD
  5
63
  100
AcDbSymbolTableRecord
  100
AcDbBlockTableRecord
  2
P_water-flow
  70
0
  0
ENDTAB
  0
ENDSEC
  0
SECTION
  2
BLOCKS
  0
BLOCK
  5
64
  100
AcDbEntity
  100
AcDbBlockBegin
  8
POINT
  2
P_u-user
  70
0
  10
0
  20
0
  30
0
  0
CIRCLE
  8
POINT
  100
AcDbEntity
  100
AcDbCircle
  10
0.00
  20
0.00
  30
0.00
  40
0.30
  0
ENDBLK
  5
65
  100
AcDbEntity
  100
AcDbBlockEnd
  8
POINT
  0
BLOCK
  5
66
  100
AcDbEntity
  100
AcDbBlockBegin
  8
POINT
  2
P_label
  70
0
  10
0
  20
0
  30
0
  0
LINE
  8
POINT
  100
AcDbEntity
  100
AcDbLine
  10
0.00
  20
-0.15
  30
0.00
  11
0.00
  21
0.30
  31
0.00
  0
LINE
  8
POINT
  100
AcDbEntity
  100
AcDbLine
  10
0.00
  20
0.30
  30
0.00
  11
-0.15
  21
0.30
  31
0.00
  0
LINE
  8
POINT
  100
AcDbEntity
  100
AcDbLine
  10
-0.15
  20
0.30
  30
0.00
  11
0.15
  21
0.30
  31
0.00
  0
ENDBLK
  5
67
  100
AcDbEntity
  100
AcDbBlockEnd
  8
POINT
  0
BLOCK
  5
68
  100
AcDbEntity
  100
AcDbBlockBegin
  8
POINT
  2
P_air-draught
  70
0
  10
0
  20
0
  30
0
  0
LINE
  8
POINT
  100
AcDbEntity
  100
AcDbLine
  10
-0.20
  20
-0.35
  30
0.00
  11
0.00
  21
-0.15
  31
0.00
  0
LINE
  8
POINT
  100
AcDbEntity
  100
AcDbLine
  10
0.00
  20
-0.15
  30
0.00
  11
0.00
  21
0.50
  31
0.00
  0
LINE
  8
POINT
  100
AcDbEntity
  100
AcDbLine
  10
0.00
  20
0.50
  30
0.00
  11
0.20
  21
0.30
  31
0.00
  0
LINE
  8
POINT
  100
AcDbEntity
  100
AcDbLine
  10
0.00
  20
0.50
  30
0.00
  11
-0.20
  21
0.30
  31
0.00
  0
LINE
  8
POINT
  100
AcDbEntity
  100
AcDbLine
  10
-0.20
  20
-0.20
  30
0.00
  11
0.00
  21
0.00
  31
0.00
  0
ENDBLK
  5
69
  100
AcDbEntity
  100
AcDbBlockEnd
  8
POINT
  0
BLOCK
  5
6A
  100
AcDbEntity
  100
AcDbBlockBegin
  8
POINT
  2
P_anchor
  70
0
  10
0
  20
0
  30
0
  0
LINE
  8
POINT
  100
AcDbEntity
  100
AcDbLine
  10
0.25
  20
0.00
  30
0.00
  11
-0.25
  21
0.00
  31
0.00
  0
CIRCLE
  8
POINT
  100
AcDbEntity
  100
AcDbCircle
  10
0.00
  20
0.00
  30
0.00
  40
0.25
  0
ENDBLK
  5
6B
  100
AcDbEntity
  100
AcDbBlockEnd
  8
POINT
  0
BLOCK
  5
6C
  100
AcDbEntity
  100
AcDbBlockBegin
  8
POINT
  2
P_aragonite
  70
0
  10
0
  20
0
  30
0
  0
LINE
  8
POINT
  100
AcDbEntity
  100
AcDbLine
  10
0.00
  20
0.25
  30
0.00
  11
0.00
  21
-0.35
  31
0.00
  0
LINE
  8
POINT
  100
AcDbEntity
  100
AcDbLine
  10
-0.10
  20
0.35
  30
0.00
  11
0.00
  21
0.25
  31
0.00
  0
LINE
  8
POINT
  100
AcDbEntity
  100
AcDbLine
  10
0.00
  20
0.25
  30
0.00
  11
0.10
  21
0.35
  31
0.00
  0
LINE
  8
POINT
  100
AcDbEntity
  100
AcDbLine
  10
-0.15
  20
0.20
  30
0.00
  11
0.00
  21
0.05
  31
0.00
  0
LINE
  8
POINT
  100
AcDbEntity
  100
AcDbLine
  10
0.00
  20
0.05
  30
0.00
  11
0.15
  21
0.20
  31
0.00
  0
ENDBLK
  5
6D
  100
AcDbEntity
  100
AcDbBlockEnd
  8
POINT
  0
BLOCK
  5
6E
  100
AcDbEntity
  100
AcDbBlockBegin
  8
POINT
  2
P_archeo-material
  70
0
  10
0
  20
0
  30
0
  0
LINE
  8
POINT
  100
AcDbEntity
  100
AcDbLine
  10
-0.17
  20
-0.17
  30
0.00
  11
0.00
  21
0.00
  31
0.00
  0
LINE
  8
POINT
  100
AcDbEntity
  100
AcDbLine
  10
-0.17
  20
0.17
  30
0.00
  11
0.00
  21
0.00
  31
0.00
  0
LINE
  8
POINT
  100
AcDbEntity
  100
AcDbLine
  10
0.00
  20
0.00
  30
0.00
  11
0.25
  21
0.00
  31
0.00
  0
CIRCLE
  8
POINT
  100
AcDbEntity
  100
AcDbCircle
  10
0.00
  20
0.00
  30
0.00
  40
0.25
  0
ENDBLK
  5
6F
  100
AcDbEntity
  100
AcDbBlockEnd
  8
POINT
  0
BLOCK
  5
70
  100
AcDbEntity
  100
AcDbBlockBegin
  8
POINT
  2
P_blocks
  70
0
  10
0
  20
0
  30
0
  0
LINE
  8
POINT
  100
AcDbEntity
  100
AcDbLine
  10
-0.35
  20
-0.20
  30
0.00
  11
0.40
  21
-0.25
  31
0.00
  0
LINE
  8
POINT
  100
AcDbEntity
  100
AcDbLine
  10
0.40
  20
-0.25
  30
0.00
  11
0.35
  21
0.25
  31
0.00
  0
LINE
  8
POINT
  100
AcDbEntity
  100
AcDbLine
  10
0.35
  20
0.25
  30
0.00
  11
-0.25
  21
0.30
  31
0.00
  0
LINE
  8
POINT
  100
AcDbEntity
  100
AcDbLine
  10
-0.25
  20
0.30
  30
0.00
  11
-0.35
  21
0.20
  31
0.00
  0
LINE
  8
POINT
  100
AcDbEntity
  100
AcDbLine
  10
-0.35
  20
0.20
  30
0.00
  11
-0.35
  21
-0.20
  31
0.00
  0
LINE
  8
POINT
  100
AcDbEntity
  100
AcDbLine
  10
-0.35
  20
-0.20
  30
0.00
  11
-0.30
  21
-0.10
  31
0.00
  0
LINE
  8
POINT
  100
AcDbEntity
  100
AcDbLine
  10
-0.30
  20
-0.10
  30
0.00
  11
-0.25
  21
0.10
  31
0.00
  0
LINE
  8
POINT
  100
AcDbEntity
  100
AcDbLine
  10
-0.25
  20
0.10
  30
0.00
  11
-0.20
  21
0.20
  31
0.00
  0
LINE
  8
POINT
  100
AcDbEntity
  100
AcDbLine
  10
-0.20
  20
0.20
  30
0.00
  11
0.25
  21
0.15
  31
0.00
  0
LINE
  8
POINT
  100
AcDbEntity
  100
AcDbLine
  10
0.25
  20
0.15
  30
0.00
  11
0.35
  21
0.25
  31
0.00
  0
LINE
  8
POINT
  100
AcDbEntity
  100
AcDbLine
  10
-0.20
  20
0.20
  30
0.00
  11
-0.25
  21
0.30
  31
0.00
  0
ENDBLK
  5
71
  100
AcDbEntity
  100
AcDbBlockEnd
  8
POINT
  0
BLOCK
  5
72
  100
AcDbEntity
  100
AcDbBlockBegin
  8
POINT
  2
P_breakdown-choke
  70
0
  10
0
  20
0
  30
0
  0
LINE
  8
POINT
  100
AcDbEntity
  100
AcDbLine
  10
-0.20
  20
-0.20
  30
0.00
  11
0.20
  21
0.20
  31
0.00
  0
LINE
  8
POINT
  100
AcDbEntity
  100
AcDbLine
  10
-0.20
  20
0.20
  30
0.00
  11
0.20
  21
-0.20
  31
0.00
  0
ENDBLK
  5
73
  100
AcDbEntity
  100
AcDbBlockEnd
  8
POINT
  0
BLOCK
  5
74
  100
AcDbEntity
  100
AcDbBlockBegin
  8
POINT
  2
P_clay
  70
0
  10
0
  20
0
  30
0
  0
ARC
  8
POINT
  100
AcDbEntity
  100
AcDbCircle
  10
-0.15
  20
0.00
  30
0.00
  40
0.15
  100
AcDbArc
  50
90.00
  51
180.00
  0
ARC
  8
POINT
  100
AcDbEntity
  100
AcDbCircle
  10
-0.15
  20
0.00
  30
0.00
  40
0.15
  100
AcDbArc
  50
0.00
  51
90.00
  0
ARC
  8
POINT
  100
AcDbEntity
  100
AcDbCircle
  10
0.15
  20
0.00
  30
0.00
  40
0.15
  100
AcDbArc
  50
180.00
  51
270.00
  0
ARC
  8
POINT
  100
AcDbEntity
  100
AcDbCircle
  10
0.15
  20
0.00
  30
0.00
  40
0.15
  100
AcDbArc
  50
270.00
  51
360.00
  0
ENDBLK
  5
75
  100
AcDbEntity
  100
AcDbBlockEnd
  8
POINT
  0
BLOCK
  5
76
  100
AcDbEntity
  100
AcDbBlockBegin
  8
POINT
  2
P_continuation
  70
0
  10
0
  20
0
  30
0
  0
LINE
  8
POINT
  100
AcDbEntity
  100
AcDbLine
  10
0.00
  20
-0.15
  30
0.00
  11
0.00
  21
0.00
  31
0.00
  0
ARC
  8
POINT
  100
AcDbEntity
  100
AcDbCircle
  10
0.10
  20
0.00
  30
0.00
  40
0.10
  100
AcDbArc
  50
90.00
  51
180.00
  0
ARC
  8
POINT
  100
AcDbEntity
  100
AcDbCircle
  10
0.00
  20
0.15
  30
0.00
  40
0.10
  100
AcDbArc
  50
0.00
  51
90.00
  0
ARC
  8
POINT
  100
AcDbEntity
  100
AcDbCircle
  10
-0.15
  20
0.30
  30
0.00
  40
0.15
  100
AcDbArc
  50
270.00
  51
360.00
  0
LINE
  8
POINT
  100
AcDbEntity
  100
AcDbLine
  10
0.00
  20
-0.35
  30
0.00
  11
0.00
  21
-0.25
  31
0.00
  0
ENDBLK
  5
77
  100
AcDbEntity
  100
AcDbBlockEnd
  8
POINT
  0
BLOCK
  5
78
  100
AcDbEntity
  100
AcDbBlockBegin
  8
POINT
  2
P_crystal
  70
0
  10
0
  20
0
  30
0
  0
LINE
  8
POINT
  100
AcDbEntity
  100
AcDbLine
  10
-0.25
  20
0.00
  30
0.00
  11
0.25
  21
0.00
  31
0.00
  0
LINE
  8
POINT
  100
AcDbEntity
  100
AcDbLine
  10
0.00
  20
0.25
  30
0.00
  11
0.00
  21
-0.25
  31
0.00
  0
LINE
  8
POINT
  100
AcDbEntity
  100
AcDbLine
  10
0.00
  20
-0.25
  30
0.00
  11
0.25
  21
0.00
  31
0.00
  0
LINE
  8
POINT
  100
AcDbEntity
  100
AcDbLine
  10
0.25
  20
0.00
  30
0.00
  11
0.00
  21
0.25
  31
0.00
  0
LINE
  8
POINT
  100
AcDbEntity
  100
AcDbLine
  10
0.00
  20
0.25
  30
0.00
  11
-0.25
  21
0.00
  31
0.00
  0
LINE
  8
POINT
  100
AcDbEntity
  100
AcDbLine
  10
-0.25
  20
0.00
  30
0.00
  11
0.00
  21
-0.25
  31
0.00
  0
ENDBLK
  5
79
  100
AcDbEntity
  100
AcDbBlockEnd
  8
POINT
  0
BLOCK
  5
7A
  100
AcDbEntity
  100
AcDbBlockBegin
  8
POINT
  2
P_curtain
  70
0
  10
0
  20
0
  30
0
  0
LINE
  8
POINT
  100
AcDbEntity
  100
AcDbLine
  10
-0.20
  20
0.20
  30
0.00
  11
0.00
  21
0.00
  31
0.00
  0
LINE
  8
POINT
  100
AcDbEntity
  100
AcDbLine
  10
0.00
  20
0.00
  30
0.00
  11
0.20
  21
0.20
  31
0.00
  0
LINE
  8
POINT
  100
AcDbEntity
  100
AcDbLine
  10
0.00
  20
0.00
  30
0.00
  11
0.00
  21
-0.10
  31
0.00
  0
ARC
  8
POINT
  100
AcDbEntity
  100
AcDbCircle
  10
0.00
  20
-0.20
  30
0.00
  40
0.10
  100
AcDbArc
  50
90.00
  51
180.00
  0
ARC
  8
POINT
  100
AcDbEntity
  100
AcDbCircle
  10
0.00
  20
-0.20
  30
0.00
  40
0.10
  100
AcDbArc
  50
180.00
  51
270.00
  0
LINE
  8
POINT
  100
AcDbEntity
  100
AcDbLine
  10
0.00
  20
-0.30
  30
0.00
  11
0.00
  21
-0.40
  31
0.00
  0
ENDBLK
  5
7B
  100
AcDbEntity
  100
AcDbBlockEnd
  8
POINT
  0
BLOCK
  5
7C
  100
AcDbEntity
  100
AcDbBlockBegin
  8
POINT
  2
P_u-danger
  70
0
  10
0
  20
0
  30
0
  0
LINE
  8
POINT
  100
AcDbEntity
  100
AcDbLine
  10
0.00
  20
0.00
  30
0.00
  11
0.10
  21
0.40
  31
0.00
  0
LINE
  8
POINT
  100
AcDbEntity
  100
AcDbLine
  10
0.10
  20
0.40
  30
0.00
  11
-0.10
  21
0.40
  31
0.00
  0
LINE
  8
POINT
  100
AcDbEntity
  100
AcDbLine
  10
-0.10
  20
0.40
  30
0.00
  11
0.00
  21
0.00
  31
0.00
  0
CIRCLE
  8
POINT
  100
AcDbEntity
  100
AcDbCircle
  10
0.00
  20
-0.20
  30
0.00
  40
0.10
  0
ENDBLK
  5
7D
  100
AcDbEntity
  100
AcDbBlockEnd
  8
POINT
  0
BLOCK
  5
7E
  100
AcDbEntity
  100
AcDbBlockBegin
  8
POINT
  2
P_debris
  70
0
  10
0
  20
0
  30
0
  0
LINE
  8
POINT
  100
AcDbEntity
  100
AcDbLine
  10
0.00
  20
0.00
  30
0.00
  11
0.20
  21
-0.05
  31
0.00
  0
LINE
  8
POINT
  100
AcDbEntity
  100
AcDbLine
  10
0.20
  20
-0.05
  30
0.00
  11
0.10
  21
0.15
  31
0.00
  0
LINE
  8
POINT
  100
AcDbEntity
  100
AcDbLine
  10
0.10
  20
0.15
  30
0.00
  11
0.00
  21
0.00
  31
0.00
  0
LINE
  8
POINT
  100
AcDbEntity
  100
AcDbLine
  10
0.00
  20
0.00
  30
0.00
  11
-0.20
  21
0.00
  31
0.00
  0
LINE
  8
POINT
  100
AcDbEntity
  100
AcDbLine
  10
-0.20
  20
0.00
  30
0.00
  11
-0.10
  21
0.20
  31
0.00
  0
LINE
  8
POINT
  100
AcDbEntity
  100
AcDbLine
  10
-0.10
  20
0.20
  30
0.00
  11
0.00
  21
0.00
  31
0.00
  0
ENDBLK
  5
7F
  100
AcDbEntity
  100
AcDbBlockEnd
  8
POINT
  0
BLOCK
  5
80
  100
AcDbEntity
  100
AcDbBlockBegin
  8
POINT
  2
P_dig
  70
0
  10
0
  20
0
  30
0
  0
LINE
  8
POINT
  100
AcDbEntity
  100
AcDbLine
  10
-0.25
  20
0.10
  30
0.00
  11
-0.05
  21
0.30
  31
0.00
  0
LINE
  8
POINT
  100
AcDbEntity
  100
AcDbLine
  10
-0.15
  20
0.20
  30
0.00
  11
0.20
  21
-0.15
  31
0.00
  0
LINE
  8
POINT
  100
AcDbEntity
  100
AcDbLine
  10
0.25
  20
0.10
  30
0.00
  11
0.05
  21
0.30
  31
0.00
  0
LINE
  8
POINT
  100
AcDbEntity
  100
AcDbLine
  10
0.15
  20
0.20
  30
0.00
  11
-0.20
  21
-0.15
  31
0.00
  0
ENDBLK
  5
81
  100
AcDbEntity
  100
AcDbBlockEnd
  8
POINT
  0
BLOCK
  5
82
  100
AcDbEntity
  100
AcDbBlockBegin
  8
POINT
  2
P_disc
  70
0
  10
0
  20
0
  30
0
  0
CIRCLE
  8
POINT
  100
AcDbEntity
  100
AcDbCircle
  10
0.00
  20
0.15
  30
0.00
  40
0.15
  0
LINE
  8
POINT
  100
AcDbEntity
  100
AcDbLine
  10
-0.10
  20
-0.15
  30
0.00
  11
0.00
  21
0.00
  31
0.00
  0
LINE
  8
POINT
  100
AcDbEntity
  100
AcDbLine
  10
0.00
  20
0.00
  30
0.00
  11
0.10
  21
-0.15
  31
0.00
  0
ENDBLK
  5
83
  100
AcDbEntity
  100
AcDbBlockEnd
  8
POINT
  0
BLOCK
  5
84
  100
AcDbEntity
  100
AcDbBlockBegin
  8
POINT
  2
P_entrance
  70
0
  10
0
  20
0
  30
0
  0
LINE
  8
POINT
  100
AcDbEntity
  100
AcDbLine
  10
0.00
  20
0.30
  30
0.00
  11
-0.15
  21
-0.15
  31
0.00
  0
LINE
  8
POINT
  100
AcDbEntity
  100
AcDbLine
  10
-0.15
  20
-0.15
  30
0.00
  11
0.15
  21
-0.15
  31
0.00
  0
LINE
  8
POINT
  100
AcDbEntity
  100
AcDbLine
  10
0.15
  20
-0.15
  30
0.00
  11
0.00
  21
0.30
  31
0.00
  0
ENDBLK
  5
85
  100
AcDbEntity
  100
AcDbBlockEnd
  8
POINT
  0
BLOCK
  5
86
  100
AcDbEntity
  100
AcDbBlockBegin
  8
POINT
  2
P_flowstone
  70
0
  10
0
  20
0
  30
0
  0
LINE
  8
POINT
  100
AcDbEntity
  100
AcDbLine
  10
-0.30
  20
0.10
  30
0.00
  11
-0.05
  21
0.10
  31
0.00
  0
LINE
  8
POINT
  100
AcDbEntity
  100
AcDbLine
  10
0.10
  20
0.10
  30
0.00
  11
0.35
  21
0.10
  31
0.00
  0
LINE
  8
POINT
  100
AcDbEntity
  100
AcDbLine
  10
-0.15
  20
-0.10
  30
0.00
  11
0.15
  21
-0.10
  31
0.00
  0
ENDBLK
  5
87
  100
AcDbEntity
  100
AcDbBlockEnd
  8
POINT
  0
BLOCK
  5
88
  100
AcDbEntity
  100
AcDbBlockBegin
  8
POINT
  2
P_flute
  70
0
  10
0
  20
0
  30
0
  0
LINE
  8
POINT
  100
AcDbEntity
  100
AcDbLine
  10
-0.30
  20
0.00
  30
0.00
  11
0.30
  21
0.00
  31
0.00
  0
ARC
  8
POINT
  100
AcDbEntity
  100
AcDbCircle
  10
0.00
  20
0.00
  30
0.00
  40
0.15
  100
AcDbArc
  50
90.00
  51
180.00
  0
ARC
  8
POINT
  100
AcDbEntity
  100
AcDbCircle
  10
0.00
  20
0.00
  30
0.00
  40
0.15
  100
AcDbArc
  50
0.00
  51
90.00
  0
ENDBLK
  5
89
  100
AcDbEntity
  100
AcDbBlockEnd
  8
POINT
  0
BLOCK
  5
8A
  100
AcDbEntity
  100
AcDbBlockBegin
  8
POINT
  2
P_gradient
  70
0
  10
0
  20
0
  30
0
  0
LINE
  8
POINT
  100
AcDbEntity
  100
AcDbLine
  10
0.00
  20
-0.40
  30
0.00
  11
0.00
  21
0.20
  31
0.00
  0
LINE
  8
POINT
  100
AcDbEntity
  100
AcDbLine
  10
0.00
  20
0.20
  30
0.00
  11
-0.10
  21
0.10
  31
0.00
  0
LINE
  8
POINT
  100
AcDbEntity
  100
AcDbLine
  10
-0.10
  20
0.10
  30
0.00
  11
0.10
  21
0.10
  31
0.00
  0
LINE
  8
POINT
  100
AcDbEntity
  100
AcDbLine
  10
0.10
  20
0.10
  30
0.00
  11
0.00
  21
0.20
  31
0.00
  0
ENDBLK
  5
8B
  100
AcDbEntity
  100
AcDbBlockEnd
  8
POINT
  0
BLOCK
  5
8C
  100
AcDbEntity
  100
AcDbBlockBegin
  8
POINT
  2
P_guano
  70
0
  10
0
  20
0
  30
0
  0
ARC
  8
POINT
  100
AcDbEntity
  100
AcDbCircle
  10
-0.12
  20
0.00
  30
0.00
  40
0.12
  100
AcDbArc
  50
0.00
  51
180.00
  0
LINE
  8
POINT
  100
AcDbEntity
  100
AcDbLine
  10
0.00
  20
0.00
  30
0.00
  11
0.00
  21
-0.30
  31
0.00
  0
ARC
  8
POINT
  100
AcDbEntity
  100
AcDbCircle
  10
0.12
  20
0.00
  30
0.00
  40
0.12
  100
AcDbArc
  50
0.00
  51
180.00
  0
ENDBLK
  5
8D
  100
AcDbEntity
  100
AcDbBlockEnd
  8
POINT
  0
BLOCK
  5
8E
  100
AcDbEntity
  100
AcDbBlockBegin
  8
POINT
  2
P_gypsum
  70
0
  10
0
  20
0
  30
0
  0
LINE
  8
POINT
  100
AcDbEntity
  100
AcDbLine
  10
-0.25
  20
0.00
  30
0.00
  11
0.00
  21
0.25
  31
0.00
  0
LINE
  8
POINT
  100
AcDbEntity
  100
AcDbLine
  10
0.00
  20
0.25
  30
0.00
  11
0.00
  21
-0.25
  31
0.00
  0
LINE
  8
POINT
  100
AcDbEntity
  100
AcDbLine
  10
0.00
  20
-0.25
  30
0.00
  11
0.25
  21
0.00
  31
0.00
  0
LINE
  8
POINT
  100
AcDbEntity
  100
AcDbLine
  10
0.25
  20
0.00
  30
0.00
  11
-0.25
  21
0.00
  31
0.00
  0
ENDBLK
  5
8F
  100
AcDbEntity
  100
AcDbBlockEnd
  8
POINT
  0
BLOCK
  5
90
  100
AcDbEntity
  100
AcDbBlockBegin
  8
POINT
  2
P_helictite
  70
0
  10
0
  20
0
  30
0
  0
LINE
  8
POINT
  100
AcDbEntity
  100
AcDbLine
  10
0.00
  20
0.35
  30
0.00
  11
0.00
  21
-0.35
  31
0.00
  0
LINE
  8
POINT
  100
AcDbEntity
  100
AcDbLine
  10
-0.15
  20
0.25
  30
0.00
  11
-0.15
  21
0.00
  31
0.00
  0
LINE
  8
POINT
  100
AcDbEntity
  100
AcDbLine
  10
-0.15
  20
0.00
  30
0.00
  11
0.15
  21
0.00
  31
0.00
  0
LINE
  8
POINT
  100
AcDbEntity
  100
AcDbLine
  10
0.15
  20
0.00
  30
0.00
  11
0.15
  21
-0.25
  31
0.00
  0
ENDBLK
  5
91
  100
AcDbEntity
  100
AcDbBlockEnd
  8
POINT
  0
BLOCK
  5
92
  100
AcDbEntity
  100
AcDbBlockBegin
  8
POINT
  2
P_ice
  70
0
  10
0
  20
0
  30
0
  0
LINE
  8
POINT
  100
AcDbEntity
  100
AcDbLine
  10
-0.25
  20
0.00
  30
0.00
  11
0.25
  21
0.00
  31
0.00
  0
LINE
  8
POINT
  100
AcDbEntity
  100
AcDbLine
  10
0.00
  20
0.25
  30
0.00
  11
0.00
  21
-0.25
  31
0.00
  0
ENDBLK
  5
93
  100
AcDbEntity
  100
AcDbBlockEnd
  8
POINT
  0
BLOCK
  5
94
  100
AcDbEntity
  100
AcDbBlockBegin
  8
POINT
  2
P_low-end
  70
0
  10
0
  20
0
  30
0
  0
LINE
  8
POINT
  100
AcDbEntity
  100
AcDbLine
  10
-0.30
  20
0.10
  30
0.00
  11
0.30
  21
0.10
  31
0.00
  0
LINE
  8
POINT
  100
AcDbEntity
  100
AcDbLine
  10
-0.30
  20
-0.10
  30
0.00
  11
0.30
  21
-0.10
  31
0.00
  0
ENDBLK
  5
95
  100
AcDbEntity
  100
AcDbBlockEnd
  8
POINT
  0
BLOCK
  5
96
  100
AcDbEntity
  100
AcDbBlockBegin
  8
POINT
  2
P_moonmilk
  70
0
  10
0
  20
0
  30
0
  0
ARC
  8
POINT
  100
AcDbEntity
  100
AcDbCircle
  10
-0.28
  20
-0.05
  30
0.00
  40
0.12
  100
AcDbArc
  50
0.00
  51
180.00
  0
ARC
  8
POINT
  100
AcDbEntity
  100
AcDbCircle
  10
-0.03
  20
-0.05
  30
0.00
  40
0.12
  100
AcDbArc
  50
0.00
  51
180.00
  0
ARC
  8
POINT
  100
AcDbEntity
  100
AcDbCircle
  10
0.23
  20
-0.05
  30
0.00
  40
0.12
  100
AcDbArc
  50
0.00
  51
180.00
  0
ENDBLK
  5
97
  100
AcDbEntity
  100
AcDbBlockEnd
  8
POINT
  0
BLOCK
  5
98
  100
AcDbEntity
  100
AcDbBlockBegin
  8
POINT
  2
P_narrow-end
  70
0
  10
0
  20
0
  30
0
  0
LINE
  8
POINT
  100
AcDbEntity
  100
AcDbLine
  10
-0.10
  20
0.30
  30
0.00
  11
-0.10
  21
-0.30
  31
0.00
  0
LINE
  8
POINT
  100
AcDbEntity
  100
AcDbLine
  10
0.10
  20
0.30
  30
0.00
  11
0.10
  21
-0.30
  31
0.00
  0
ENDBLK
  5
99
  100
AcDbEntity
  100
AcDbBlockEnd
  8
POINT
  0
BLOCK
  5
9A
  100
AcDbEntity
  100
AcDbBlockBegin
  8
POINT
  2
P_paleo-material
  70
0
  10
0
  20
0
  30
0
  0
CIRCLE
  8
POINT
  100
AcDbEntity
  100
AcDbCircle
  10
-0.25
  20
-0.10
  30
0.00
  40
0.05
  0
CIRCLE
  8
POINT
  100
AcDbEntity
  100
AcDbCircle
  10
-0.20
  20
-0.20
  30
0.00
  40
0.05
  0
CIRCLE
  8
POINT
  100
AcDbEntity
  100
AcDbCircle
  10
0.20
  20
0.20
  30
0.00
  40
0.05
  0
CIRCLE
  8
POINT
  100
AcDbEntity
  100
AcDbCircle
  10
0.25
  20
0.10
  30
0.00
  40
0.05
  0
LINE
  8
POINT
  100
AcDbEntity
  100
AcDbLine
  10
-0.21
  20
-0.09
  30
0.00
  11
0.17
  21
0.17
  31
0.00
  0
LINE
  8
POINT
  100
AcDbEntity
  100
AcDbLine
  10
0.21
  20
0.09
  30
0.00
  11
-0.17
  21
-0.17
  31
0.00
  0
ENDBLK
  5
9B
  100
AcDbEntity
  100
AcDbBlockEnd
  8
POINT
  0
BLOCK
  5
9C
  100
AcDbEntity
  100
AcDbBlockBegin
  8
POINT
  2
P_paleoflow
  70
0
  10
0
  20
0
  30
0
  0
LINE
  8
POINT
  100
AcDbEntity
  100
AcDbLine
  10
0.00
  20
-0.25
  30
0.00
  11
0.00
  21
0.35
  31
0.00
  0
LINE
  8
POINT
  100
AcDbEntity
  100
AcDbLine
  10
0.00
  20
0.35
  30
0.00
  11
0.10
  21
0.25
  31
0.00
  0
LINE
  8
POINT
  100
AcDbEntity
  100
AcDbLine
  10
0.00
  20
0.35
  30
0.00
  11
-0.10
  21
0.25
  31
0.00
  0
ARC
  8
POINT
  100
AcDbEntity
  100
AcDbCircle
  10
0.00
  20
0.00
  30
0.00
  40
0.15
  100
AcDbArc
  50
90.00
  51
180.00
  0
ARC
  8
POINT
  100
AcDbEntity
  100
AcDbCircle
  10
0.00
  20
0.00
  30
0.00
  40
0.15
  100
AcDbArc
  50
0.00
  51
90.00
  0
ENDBLK
  5
9D
  100
AcDbEntity
  100
AcDbBlockEnd
  8
POINT
  0
BLOCK
  5
9E
  100
AcDbEntity
  100
AcDbBlockBegin
  8
POINT
  2
P_pebbles
  70
0
  10
0
  20
0
  30
0
  0
CIRCLE
  8
POINT
  100
AcDbEntity
  100
AcDbCircle
  10
-0.15
  20
-0.05
  30
0.00
  40
0.10
  0
CIRCLE
  8
POINT
  100
AcDbEntity
  100
AcDbCircle
  10
0.20
  20
-0.15
  30
0.00
  40
0.10
  0
CIRCLE
  8
POINT
  100
AcDbEntity
  100
AcDbCircle
  10
0.15
  20
0.15
  30
0.00
  40
0.10
  0
ENDBLK
  5
9F
  100
AcDbEntity
  100
AcDbBlockEnd
  8
POINT
  0
BLOCK
  5
A0
  100
AcDbEntity
  100
AcDbBlockBegin
  8
POINT
  2
P_pendant
  70
0
  10
0
  20
0
  30
0
  0
ARC
  8
POINT
  100
AcDbEntity
  100
AcDbCircle
  10
-0.20
  20
0.20
  30
0.00
  40
0.10
  100
AcDbArc
  50
90.00
  51
270.00
  0
ARC
  8
POINT
  100
AcDbEntity
  100
AcDbCircle
  10
0.00
  20
0.10
  30
0.00
  40
0.20
  100
AcDbArc
  50
180.00
  51
270.00
  0
ARC
  8
POINT
  100
AcDbEntity
  100
AcDbCircle
  10
0.20
  20
-0.30
  30
0.00
  40
0.20
  100
AcDbArc
  50
90.00
  51
180.00
  0
ARC
  8
POINT
  100
AcDbEntity
  100
AcDbCircle
  10
0.20
  20
0.20
  30
0.00
  40
0.10
  100
AcDbArc
  50
90.00
  51
270.00
  0
ENDBLK
  5
A1
  100
AcDbEntity
  100
AcDbBlockEnd
  8
POINT
  0
BLOCK
  5
A2
  100
AcDbEntity
  100
AcDbBlockBegin
  8
POINT
  2
P_pillar
  70
0
  10
0
  20
0
  30
0
  0
LINE
  8
POINT
  100
AcDbEntity
  100
AcDbLine
  10
-0.15
  20
0.35
  30
0.00
  11
0.00
  21
0.20
  31
0.00
  0
LINE
  8
POINT
  100
AcDbEntity
  100
AcDbLine
  10
0.00
  20
0.20
  30
0.00
  11
0.00
  21
-0.20
  31
0.00
  0
LINE
  8
POINT
  100
AcDbEntity
  100
AcDbLine
  10
0.00
  20
-0.20
  30
0.00
  11
-0.15
  21
-0.35
  31
0.00
  0
LINE
  8
POINT
  100
AcDbEntity
  100
AcDbLine
  10
0.00
  20
-0.20
  30
0.00
  11
0.15
  21
-0.35
  31
0.00
  0
LINE
  8
POINT
  100
AcDbEntity
  100
AcDbLine
  10
0.00
  20
0.20
  30
0.00
  11
0.15
  21
0.35
  31
0.00
  0
ENDBLK
  5
A3
  100
AcDbEntity
  100
AcDbBlockEnd
  8
POINT
  0
BLOCK
  5
A4
  100
AcDbEntity
  100
AcDbBlockBegin
  8
POINT
  2
P_popcorn
  70
0
  10
0
  20
0
  30
0
  0
LINE
  8
POINT
  100
AcDbEntity
  100
AcDbLine
  10
-0.35
  20
-0.20
  30
0.00
  11
0.35
  21
-0.20
  31
0.00
  0
LINE
  8
POINT
  100
AcDbEntity
  100
AcDbLine
  10
-0.30
  20
-0.20
  30
0.00
  11
-0.30
  21
0.05
  31
0.00
  0
CIRCLE
  8
POINT
  100
AcDbEntity
  100
AcDbCircle
  10
-0.30
  20
0.10
  30
0.00
  40
0.05
  0
LINE
  8
POINT
  100
AcDbEntity
  100
AcDbLine
  10
0.00
  20
-0.20
  30
0.00
  11
0.00
  21
0.05
  31
0.00
  0
CIRCLE
  8
POINT
  100
AcDbEntity
  100
AcDbCircle
  10
0.00
  20
0.10
  30
0.00
  40
0.05
  0
LINE
  8
POINT
  100
AcDbEntity
  100
AcDbLine
  10
0.30
  20
-0.20
  30
0.00
  11
0.30
  21
0.05
  31
0.00
  0
CIRCLE
  8
POINT
  100
AcDbEntity
  100
AcDbCircle
  10
0.30
  20
0.10
  30
0.00
  40
0.05
  0
ENDBLK
  5
A5
  100
AcDbEntity
  100
AcDbBlockEnd
  8
POINT
  0
BLOCK
  5
A6
  100
AcDbEntity
  100
AcDbBlockBegin
  8
POINT
  2
P_root
  70
0
  10
0
  20
0
  30
0
  0
LINE
  8
POINT
  100
AcDbEntity
  100
AcDbLine
  10
0.00
  20
0.40
  30
0.00
  11
0.00
  21
-0.20
  31
0.00
  0
LINE
  8
POINT
  100
AcDbEntity
  100
AcDbLine
  10
0.00
  20
-0.20
  30
0.00
  11
0.15
  21
-0.35
  31
0.00
  0
LINE
  8
POINT
  100
AcDbEntity
  100
AcDbLine
  10
0.00
  20
-0.05
  30
0.00
  11
0.15
  21
-0.20
  31
0.00
  0
LINE
  8
POINT
  100
AcDbEntity
  100
AcDbLine
  10
0.00
  20
0.10
  30
0.00
  11
0.15
  21
-0.05
  31
0.00
  0
ENDBLK
  5
A7
  100
AcDbEntity
  100
AcDbBlockEnd
  8
POINT
  0
BLOCK
  5
A8
  100
AcDbEntity
  100
AcDbBlockBegin
  8
POINT
  2
P_sand
  70
0
  10
0
  20
0
  30
0
  0
LINE
  8
POINT
  100
AcDbEntity
  100
AcDbLine
  10
-0.35
  20
-0.15
  30
0.00
  11
-0.25
  21
-0.15
  31
0.00
  0
LINE
  8
POINT
  100
AcDbEntity
  100
AcDbLine
  10
-0.25
  20
-0.15
  30
0.00
  11
-0.30
  21
-0.05
  31
0.00
  0
LINE
  8
POINT
  100
AcDbEntity
  100
AcDbLine
  10
-0.30
  20
-0.05
  30
0.00
  11
-0.35
  21
-0.15
  31
0.00
  0
LINE
  8
POINT
  100
AcDbEntity
  100
AcDbLine
  10
0.35
  20
-0.15
  30
0.00
  11
0.25
  21
-0.15
  31
0.00
  0
LINE
  8
POINT
  100
AcDbEntity
  100
AcDbLine
  10
0.25
  20
-0.15
  30
0.00
  11
0.30
  21
-0.05
  31
0.00
  0
LINE
  8
POINT
  100
AcDbEntity
  100
AcDbLine
  10
0.30
  20
-0.05
  30
0.00
  11
0.35
  21
-0.15
  31
0.00
  0
LINE
  8
POINT
  100
AcDbEntity
  100
AcDbLine
  10
-0.05
  20
0.15
  30
0.00
  11
0.05
  21
0.15
  31
0.00
  0
LINE
  8
POINT
  100
AcDbEntity
  100
AcDbLine
  10
0.05
  20
0.15
  30
0.00
  11
0.00
  21
0.25
  31
0.00
  0
LINE
  8
POINT
  100
AcDbEntity
  100
AcDbLine
  10
0.00
  20
0.25
  30
0.00
  11
-0.05
  21
0.15
  31
0.00
  0
ENDBLK
  5
A9
  100
AcDbEntity
  100
AcDbBlockEnd
  8
POINT
  0
BLOCK
  5
AA
  100
AcDbEntity
  100
AcDbBlockBegin
  8
POINT
  2
P_scallop
  70
0
  10
0
  20
0
  30
0
  0
LINE
  8
POINT
  100
AcDbEntity
  100
AcDbLine
  10
0.00
  20
-0.30
  30
0.00
  11
-0.15
  21
0.00
  31
0.00
  0
ARC
  8
POINT
  100
AcDbEntity
  100
AcDbCircle
  10
0.00
  20
0.00
  30
0.00
  40
0.15
  100
AcDbArc
  50
90.00
  51
180.00
  0
ARC
  8
POINT
  100
AcDbEntity
  100
AcDbCircle
  10
0.00
  20
0.00
  30
0.00
  40
0.15
  100
AcDbArc
  50
0.00
  51
90.00
  0
LINE
  8
POINT
  100
AcDbEntity
  100
AcDbLine
  10
0.15
  20
0.00
  30
0.00
  11
0.00
  21
-0.30
  31
0.00
  0
ENDBLK
  5
AB
  100
AcDbEntity
  100
AcDbBlockEnd
  8
POINT
  0
BLOCK
  5
AC
  100
AcDbEntity
  100
AcDbBlockBegin
  8
POINT
  2
P_section
  70
0
  10
0
  20
0
  30
0
  0
LINE
  8
POINT
  100
AcDbEntity
  100
AcDbLine
  10
-0.25
  20
0.25
  30
0.00
  11
-0.25
  21
-0.25
  31
0.00
  0
LINE
  8
POINT
  100
AcDbEntity
  100
AcDbLine
  10
-0.25
  20
-0.25
  30
0.00
  11
0.25
  21
-0.25
  31
0.00
  0
LINE
  8
POINT
  100
AcDbEntity
  100
AcDbLine
  10
0.25
  20
-0.25
  30
0.00
  11
0.25
  21
0.25
  31
0.00
  0
LINE
  8
POINT
  100
AcDbEntity
  100
AcDbLine
  10
0.25
  20
0.25
  30
0.00
  11
-0.25
  21
0.25
  31
0.00
  0
ENDBLK
  5
AD
  100
AcDbEntity
  100
AcDbBlockEnd
  8
POINT
  0
BLOCK
  5
AE
  100
AcDbEntity
  100
AcDbBlockBegin
  8
POINT
  2
P_sink
  70
0
  10
0
  20
0
  30
0
  0
ARC
  8
POINT
  100
AcDbEntity
  100
AcDbCircle
  10
0.00
  20
0.15
  30
0.00
  40
0.25
  100
AcDbArc
  50
180.00
  51
360.00
  0
ENDBLK
  5
AF
  100
AcDbEntity
  100
AcDbBlockEnd
  8
POINT
  0
BLOCK
  5
B0
  100
AcDbEntity
  100
AcDbBlockBegin
  8
POINT
  2
P_snow
  70
0
  10
0
  20
0
  30
0
  0
LINE
  8
POINT
  100
AcDbEntity
  100
AcDbLine
  10
0.00
  20
0.25
  30
0.00
  11
0.00
  21
-0.25
  31
0.00
  0
LINE
  8
POINT
  100
AcDbEntity
  100
AcDbLine
  10
-0.20
  20
0.15
  30
0.00
  11
0.20
  21
-0.15
  31
0.00
  0
LINE
  8
POINT
  100
AcDbEntity
  100
AcDbLine
  10
-0.20
  20
-0.15
  30
0.00
  11
0.20
  21
0.15
  31
0.00
  0
ENDBLK
  5
B1
  100
AcDbEntity
  100
AcDbBlockEnd
  8
POINT
  0
BLOCK
  5
B2
  100
AcDbEntity
  100
AcDbBlockBegin
  8
POINT
  2
P_soda-straw
  70
0
  10
0
  20
0
  30
0
  0
LINE
  8
POINT
  100
AcDbEntity
  100
AcDbLine
  10
-0.30
  20
0.10
  30
0.00
  11
0.30
  21
0.10
  31
0.00
  0
LINE
  8
POINT
  100
AcDbEntity
  100
AcDbLine
  10
-0.20
  20
0.10
  30
0.00
  11
-0.20
  21
-0.10
  31
0.00
  0
LINE
  8
POINT
  100
AcDbEntity
  100
AcDbLine
  10
0.00
  20
0.10
  30
0.00
  11
0.00
  21
-0.30
  31
0.00
  0
LINE
  8
POINT
  100
AcDbEntity
  100
AcDbLine
  10
0.20
  20
0.10
  30
0.00
  11
0.20
  21
-0.20
  31
0.00
  0
ENDBLK
  5
B3
  100
AcDbEntity
  100
AcDbBlockEnd
  8
POINT
  0
BLOCK
  5
B4
  100
AcDbEntity
  100
AcDbBlockBegin
  8
POINT
  2
P_spring
  70
0
  10
0
  20
0
  30
0
  0
ARC
  8
POINT
  100
AcDbEntity
  100
AcDbCircle
  10
0.00
  20
-0.15
  30
0.00
  40
0.25
  100
AcDbArc
  50
0.00
  51
180.00
  0
ENDBLK
  5
B5
  100
AcDbEntity
  100
AcDbBlockEnd
  8
POINT
  0
BLOCK
  5
B6
  100
AcDbEntity
  100
AcDbBlockBegin
  8
POINT
  2
P_stalactite
  70
0
  10
0
  20
0
  30
0
  0
LINE
  8
POINT
  100
AcDbEntity
  100
AcDbLine
  10
-0.20
  20
0.20
  30
0.00
  11
0.00
  21
0.00
  31
0.00
  0
LINE
  8
POINT
  100
AcDbEntity
  100
AcDbLine
  10
0.00
  20
0.00
  30
0.00
  11
0.20
  21
0.20
  31
0.00
  0
LINE
  8
POINT
  100
AcDbEntity
  100
AcDbLine
  10
0.00
  20
0.00
  30
0.00
  11
0.00
  21
-0.30
  31
0.00
  0
ENDBLK
  5
B7
  100
AcDbEntity
  100
AcDbBlockEnd
  8
POINT
  0
BLOCK
  5
B8
  100
AcDbEntity
  100
AcDbBlockBegin
  8
POINT
  2
P_stalagmite
  70
0
  10
0
  20
0
  30
0
  0
LINE
  8
POINT
  100
AcDbEntity
  100
AcDbLine
  10
-0.20
  20
-0.20
  30
0.00
  11
0.00
  21
0.00
  31
0.00
  0
LINE
  8
POINT
  100
AcDbEntity
  100
AcDbLine
  10
0.00
  20
0.00
  30
0.00
  11
0.20
  21
-0.20
  31
0.00
  0
LINE
  8
POINT
  100
AcDbEntity
  100
AcDbLine
  10
0.00
  20
0.00
  30
0.00
  11
0.00
  21
0.30
  31
0.00
  0
ENDBLK
  5
B9
  100
AcDbEntity
  100
AcDbBlockEnd
  8
POINT
  0
BLOCK
  5
BA
  100
AcDbEntity
  100
AcDbBlockBegin
  8
POINT
  2
P_wall-calcite
  70
0
  10
0
  20
0
  30
0
  0
LINE
  8
POINT
  100
AcDbEntity
  100
AcDbLine
  10
-0.30
  20
-0.10
  30
0.00
  11
-0.15
  21
0.10
  31
0.00
  0
LINE
  8
POINT
  100
AcDbEntity
  100
AcDbLine
  10
-0.15
  20
0.10
  30
0.00
  11
0.00
  21
-0.10
  31
0.00
  0
LINE
  8
POINT
  100
AcDbEntity
  100
AcDbLine
  10
0.00
  20
-0.10
  30
0.00
  11
0.15
  21
0.10
  31
0.00
  0
LINE
  8
POINT
  100
AcDbEntity
  100
AcDbLine
  10
0.15
  20
0.10
  30
0.00
  11
0.30
  21
-0.10
  31
0.00
  0
ENDBLK
  5
BB
  100
AcDbEntity
  100
AcDbBlockEnd
  8
POINT
  0
BLOCK
  5
BC
  100
AcDbEntity
  100
AcDbBlockBegin
  8
POINT
  2
P_water
  70
0
  10
0
  20
0
  30
0
  0
LINE
  8
POINT
  100
AcDbEntity
  100
AcDbLine
  10
-0.30
  20
0.15
  30
0.00
  11
-0.05
  21
0.15
  31
0.00
  0
LINE
  8
POINT
  100
AcDbEntity
  100
AcDbLine
  10
0.10
  20
0.15
  30
0.00
  11
0.30
  21
0.15
  31
0.00
  0
LINE
  8
POINT
  100
AcDbEntity
  100
AcDbLine
  10
-0.20
  20
0.00
  30
0.00
  11
0.05
  21
0.00
  31
0.00
  0
LINE
  8
POINT
  100
AcDbEntity
  100
AcDbLine
  10
0.15
  20
0.00
  30
0.00
  11
0.35
  21
0.00
  31
0.00
  0
LINE
  8
POINT
  100
AcDbEntity
  100
AcDbLine
  10
-0.15
  20
-0.15
  30
0.00
  11
0.25
  21
-0.15
  31
0.00
  0
ENDBLK
  5
BD
  100
AcDbEntity
  100
AcDbBlockEnd
  8
POINT
  0
BLOCK
  5
BE
  100
AcDbEntity
  100
AcDbBlockBegin
  8
POINT
  2
P_water-flow
  70
0
  10
0
  20
0
  30
0
  0
ARC
  8
POINT
  100
AcDbEntity
  100
AcDbCircle
  10
0.00
  20
-0.08
  30
0.00
  40
0.08
  100
AcDbArc
  50
90.00
  51
270.00
  0
ARC
  8
POINT
  100
AcDbEntity
  100
AcDbCircle
  10
0.00
  20
0.08
  30
0.00
  40
0.08
  100
AcDbArc
  50
270.00
  51
450.00
  0
ARC
  8
POINT
  100
AcDbEntity
  100
AcDbCircle
  10
0.00
  20
0.23
  30
0.00
  40
0.08
  100
AcDbArc
  50
90.00
  51
270.00
  0
ARC
  8
POINT
  100
AcDbEntity
  100
AcDbCircle
  10
0.00
  20
0.38
  30
0.00
  40
0.08
  100
AcDbArc
  50
270.00
  51
360.00
  0
ARC
  8
POINT
  100
AcDbEntity
  100
AcDbCircle
  10
0.00
  20
0.38
  30
0.00
  40
0.08
  100
AcDbArc
  50
0.00
  51
90.00
  0
LINE
  8
POINT
  100
AcDbEntity
  100
AcDbLine
  10
0.00
  20
0.50
  30
0.00
  11
0.20
  21
0.30
  31
0.00
  0
LINE
  8
POINT
  100
AcDbEntity
  100
AcDbLine
  10
0.00
  20
0.50
  30
0.00
  11
-0.20
  21
0.30
  31
0.00
  0
ENDBLK
  5
BF
  100
AcDbEntity
  100
AcDbBlockEnd
  8
POINT
  0
ENDSEC
  0
SECTION
  2
ENTITIES
  0
LINE
  5
C0
  100
AcDbEntity
  100
AcDbLine
  8
REF
  10
9998.00
  20
9998.00
  30
0.00
  11
10198.00
  21
9998.00
  31
0.00
  0
LINE
  5
C1
  100
AcDbEntity
  100
AcDbLine
  8
REF
  10
9998.00
  20
9998.00
  30
0.00
  11
9998.00
  21
10198.00
  31
0.00
  0
TEXT
  5
C2
  100
AcDbEntity
  100
AcDbText
  8
REF
  10
10199.00
  20
9998.00
  30
0.00
  40
6.00
  50
0.00
  51
0.00
  1
10
  7
MyStyle
  100
AcDbText
  0
TEXT
  5
C3
  100
AcDbEntity
  100
AcDbText
  8
REF
  10
9998.00
  20
10199.00
  30
0.00
  40
6.00
  50
0.00
  51
0.00
  1
10
  7
MyStyle
  100
AcDbText
  0
LINE
  5
C4
  100
AcDbEntity
  100
AcDbLine
  8
LEG
  10
81.23
  20
-358.52
  30
0.00
  11
100.00
  21
-120.00
  31
0.00
  0
ENDSEC
  0
EOF
